%TF.GenerationSoftware,KiCad,Pcbnew,10.0.1*%
%TF.CreationDate,2026-05-15T02:11:42+02:00*%
%TF.ProjectId,streamdeckpcb,73747265-616d-4646-9563-6b7063622e6b,1.7*%
%TF.SameCoordinates,Original*%
%TF.FileFunction,Soldermask,Top*%
%TF.FilePolarity,Negative*%
%FSLAX46Y46*%
G04 Gerber Fmt 4.6, Leading zero omitted, Abs format (unit mm)*
G04 Created by KiCad (PCBNEW 10.0.1) date 2026-05-15 02:11:42*
%MOMM*%
%LPD*%
G01*
G04 APERTURE LIST*
G04 Aperture macros list*
%AMRoundRect*
0 Rectangle with rounded corners*
0 $1 Rounding radius*
0 $2 $3 $4 $5 $6 $7 $8 $9 X,Y pos of 4 corners*
0 Add a 4 corners polygon primitive as box body*
4,1,4,$2,$3,$4,$5,$6,$7,$8,$9,$2,$3,0*
0 Add four circle primitives for the rounded corners*
1,1,$1+$1,$2,$3*
1,1,$1+$1,$4,$5*
1,1,$1+$1,$6,$7*
1,1,$1+$1,$8,$9*
0 Add four rect primitives between the rounded corners*
20,1,$1+$1,$2,$3,$4,$5,0*
20,1,$1+$1,$4,$5,$6,$7,0*
20,1,$1+$1,$6,$7,$8,$9,0*
20,1,$1+$1,$8,$9,$2,$3,0*%
G04 Aperture macros list end*
%ADD10C,3.500000*%
%ADD11C,1.600000*%
%ADD12R,1.700000X1.700000*%
%ADD13C,1.700000*%
%ADD14RoundRect,0.250000X-0.550000X-0.550000X0.550000X-0.550000X0.550000X0.550000X-0.550000X0.550000X0*%
%ADD15RoundRect,0.190500X0.444500X-1.079500X0.444500X1.079500X-0.444500X1.079500X-0.444500X-1.079500X0*%
%ADD16RoundRect,0.190500X-0.444500X1.079500X-0.444500X-1.079500X0.444500X-1.079500X0.444500X1.079500X0*%
%ADD17RoundRect,0.150000X-0.150000X0.587500X-0.150000X-0.587500X0.150000X-0.587500X0.150000X0.587500X0*%
%ADD18C,0.700000*%
%ADD19O,0.900000X2.400000*%
%ADD20O,0.900000X1.700000*%
%ADD21RoundRect,0.250000X0.550000X0.550000X-0.550000X0.550000X-0.550000X-0.550000X0.550000X-0.550000X0*%
G04 APERTURE END LIST*
D10*
%TO.C,REF\u002A\u002A*%
X129000000Y-105000000D03*
%TD*%
%TO.C,REF\u002A\u002A*%
X179000000Y-147500000D03*
%TD*%
%TO.C,REF\u002A\u002A*%
X178000000Y-71500000D03*
%TD*%
%TO.C,REF\u002A\u002A*%
X127000000Y-71500000D03*
%TD*%
D11*
%TO.C,C11*%
X171500000Y-126160000D03*
X171500000Y-121160000D03*
%TD*%
D12*
%TO.C,J1*%
X180500000Y-129190000D03*
D13*
X180500000Y-131730000D03*
X180500000Y-134270000D03*
X180500000Y-136810000D03*
%TD*%
D12*
%TO.C,J5*%
X157920000Y-141660000D03*
D13*
X160460000Y-141660000D03*
X163000000Y-141660000D03*
%TD*%
D11*
%TO.C,C14*%
X164500000Y-135000000D03*
D14*
X161000000Y-135000000D03*
%TD*%
D11*
%TO.C,C12*%
X138500000Y-126160000D03*
X138500000Y-121160000D03*
%TD*%
%TO.C,R3*%
X143500000Y-121420000D03*
X143500000Y-131580000D03*
%TD*%
%TO.C,R12*%
X147500000Y-79420000D03*
X147500000Y-89580000D03*
%TD*%
%TO.C,R11*%
X151500000Y-79420000D03*
X151500000Y-89580000D03*
%TD*%
%TO.C,C4*%
X142500000Y-96160000D03*
X142500000Y-101160000D03*
%TD*%
%TO.C,R9*%
X147000000Y-104080000D03*
X147000000Y-114240000D03*
%TD*%
%TO.C,R8*%
X151500000Y-104080000D03*
X151500000Y-114240000D03*
%TD*%
%TO.C,R7*%
X156500000Y-104000000D03*
X156500000Y-114160000D03*
%TD*%
%TO.C,R10*%
X142580000Y-104000000D03*
X142580000Y-114160000D03*
%TD*%
%TO.C,C1*%
X156500000Y-96160000D03*
X156500000Y-101160000D03*
%TD*%
%TO.C,C3*%
X147000000Y-96160000D03*
X147000000Y-101160000D03*
%TD*%
%TO.C,C2*%
X151500000Y-96160000D03*
X151500000Y-101160000D03*
%TD*%
D15*
%TO.C,U1*%
X156080000Y-92960000D03*
X130680000Y-92960000D03*
X133220000Y-92960000D03*
X153540000Y-118360000D03*
X123060000Y-118360000D03*
X125600000Y-118360000D03*
X130680000Y-118360000D03*
X133220000Y-118360000D03*
X173860000Y-118360000D03*
X135760000Y-118360000D03*
X138300000Y-118360000D03*
X151000000Y-118360000D03*
X158620000Y-118360000D03*
X161160000Y-118360000D03*
X163700000Y-118360000D03*
X166240000Y-118360000D03*
X168780000Y-118360000D03*
X171320000Y-118360000D03*
X140840000Y-118360000D03*
X143380000Y-118360000D03*
X145920000Y-118360000D03*
X148460000Y-118360000D03*
X171320000Y-92960000D03*
X168780000Y-92960000D03*
X166240000Y-92960000D03*
X153540000Y-92960000D03*
X151000000Y-92960000D03*
X148460000Y-92960000D03*
X145920000Y-92960000D03*
X143380000Y-92960000D03*
X140840000Y-92960000D03*
X138300000Y-92960000D03*
X135760000Y-92960000D03*
X158620000Y-92960000D03*
X156080000Y-118360000D03*
X163700000Y-92960000D03*
X161160000Y-92960000D03*
X176400000Y-118360000D03*
X123060000Y-92960000D03*
X173860000Y-92960000D03*
X176400000Y-92960000D03*
X128140000Y-118360000D03*
D16*
X128140000Y-92960000D03*
D15*
X125600000Y-92960000D03*
%TD*%
D13*
%TO.C,J7*%
X172040000Y-148000000D03*
D12*
X169500000Y-148000000D03*
%TD*%
D13*
%TO.C,J8*%
X163265000Y-148000000D03*
D12*
X160725000Y-148000000D03*
%TD*%
D13*
%TO.C,J9*%
X154500000Y-148000000D03*
D12*
X151960000Y-148000000D03*
%TD*%
D13*
%TO.C,J10*%
X145000000Y-148000000D03*
D12*
X142460000Y-148000000D03*
%TD*%
D13*
%TO.C,J6*%
X127265000Y-148000000D03*
D12*
X124725000Y-148000000D03*
%TD*%
D11*
%TO.C,R6*%
X133000000Y-85080000D03*
X133000000Y-74920000D03*
%TD*%
%TO.C,R5*%
X166000000Y-85080000D03*
X166000000Y-74920000D03*
%TD*%
%TO.C,R4*%
X173000000Y-127920000D03*
X173000000Y-138080000D03*
%TD*%
%TO.C,R2*%
X169000000Y-128420000D03*
X169000000Y-138580000D03*
%TD*%
D17*
%TO.C,Q2*%
X155450000Y-129062500D03*
X153550000Y-129062500D03*
X154500000Y-130937500D03*
%TD*%
%TO.C,Q1*%
X159450000Y-129062500D03*
X157550000Y-129062500D03*
X158500000Y-130937500D03*
%TD*%
D18*
%TO.C,P1*%
X152475000Y-72185000D03*
X151625000Y-72185000D03*
X150775000Y-72185000D03*
X149925000Y-72185000D03*
X149075000Y-72185000D03*
X148225000Y-72185000D03*
X147375000Y-72185000D03*
X146525000Y-72185000D03*
X146525000Y-70835000D03*
X147375000Y-70835000D03*
X148225000Y-70835000D03*
X149075000Y-70835000D03*
X149925000Y-70835000D03*
X150775000Y-70835000D03*
X151625000Y-70835000D03*
X152475000Y-70835000D03*
D19*
X153825000Y-71205000D03*
D20*
X153825000Y-67825000D03*
D19*
X145175000Y-71205000D03*
D20*
X145175000Y-67825000D03*
%TD*%
D12*
%TO.C,J12*%
X169460000Y-142000000D03*
D13*
X172000000Y-142000000D03*
%TD*%
D12*
%TO.C,J11*%
X133225000Y-148000000D03*
D13*
X135765000Y-148000000D03*
%TD*%
D12*
%TO.C,J4*%
X146960000Y-141660000D03*
D13*
X149500000Y-141660000D03*
X152040000Y-141660000D03*
%TD*%
D12*
%TO.C,J3*%
X135920000Y-141660000D03*
D13*
X138460000Y-141660000D03*
X141000000Y-141660000D03*
%TD*%
D12*
%TO.C,J2*%
X124920000Y-141660000D03*
D13*
X127460000Y-141660000D03*
X130000000Y-141660000D03*
%TD*%
D21*
%TO.C,C13*%
X142500000Y-79500000D03*
D11*
X139000000Y-79500000D03*
%TD*%
D14*
%TO.C,C9*%
X156500000Y-80000000D03*
D11*
X160000000Y-80000000D03*
%TD*%
%TO.C,C8*%
X165500000Y-121160000D03*
X165500000Y-126160000D03*
%TD*%
%TO.C,C7*%
X162500000Y-121160000D03*
X162500000Y-126160000D03*
%TD*%
%TO.C,C6*%
X158500000Y-121160000D03*
X158500000Y-126160000D03*
%TD*%
%TO.C,C5*%
X151000000Y-121160000D03*
X151000000Y-126160000D03*
%TD*%
%TO.C,R1*%
X147000000Y-121420000D03*
X147000000Y-131580000D03*
%TD*%
%TO.C,C10*%
X168500000Y-121160000D03*
X168500000Y-126160000D03*
%TD*%
M02*
