M48
; DRILL file KiCad 10.0.1 date 2026-05-15T02:13:22
; FORMAT={-:-/ absolute / metric / decimal}
; #@! TF.CreationDate,2026-05-15T02:13:22+02:00
; #@! TF.GenerationSoftware,Kicad,Pcbnew,10.0.1
; #@! TF.FileFunction,Plated,1,2,PTH
FMAT,2
METRIC
; #@! TA.AperFunction,Plated,PTH,ViaDrill
T1C0.300
; #@! TA.AperFunction,Plated,PTH,ViaDrill
T2C0.400
; #@! TA.AperFunction,Plated,PTH,ComponentDrill
T3C0.400
; #@! TA.AperFunction,Plated,PTH,ComponentDrill
T4C0.600
; #@! TA.AperFunction,Plated,PTH,ComponentDrill
T5C0.800
; #@! TA.AperFunction,Plated,PTH,ComponentDrill
T6C1.000
%
G90
G05
T1
X132.5Y-145.5
X134.0Y-133.5
X148.993Y-75.493
X152.25Y-74.0
X168.0Y-90.08
X169.49Y-123.388
X169.5Y-122.5
X169.584Y-124.183
X170.22Y-124.668
X170.415Y-125.444
X173.0Y-121.875
X174.5Y-137.5
X175.3Y-137.5
X176.1Y-137.5
X177.0Y-137.5
X177.8Y-137.5
X178.6Y-137.5
T2
X154.5Y-128.5
X160.5Y-128.5
T3
X146.525Y-70.835
X146.525Y-72.185
X147.375Y-70.835
X147.375Y-72.185
X148.225Y-70.835
X148.225Y-72.185
X149.075Y-70.835
X149.075Y-72.185
X149.925Y-70.835
X149.925Y-72.185
X150.775Y-70.835
X150.775Y-72.185
X151.625Y-70.835
X151.625Y-72.185
X152.475Y-70.835
X152.475Y-72.185
T5
X123.06Y-92.96
X123.06Y-118.36
X125.6Y-92.96
X125.6Y-118.36
X128.14Y-92.96
X128.14Y-118.36
X130.68Y-92.96
X130.68Y-118.36
X133.0Y-74.92
X133.0Y-85.08
X133.22Y-92.96
X133.22Y-118.36
X135.76Y-92.96
X135.76Y-118.36
X138.3Y-92.96
X138.3Y-118.36
X138.5Y-121.16
X138.5Y-126.16
X139.0Y-79.5
X140.84Y-92.96
X140.84Y-118.36
X142.5Y-79.5
X142.5Y-96.16
X142.5Y-101.16
X142.58Y-104.0
X142.58Y-114.16
X143.38Y-92.96
X143.38Y-118.36
X143.5Y-121.42
X143.5Y-131.58
X145.92Y-92.96
X145.92Y-118.36
X147.0Y-96.16
X147.0Y-101.16
X147.0Y-104.08
X147.0Y-114.24
X147.0Y-121.42
X147.0Y-131.58
X147.5Y-79.42
X147.5Y-89.58
X148.46Y-92.96
X148.46Y-118.36
X151.0Y-92.96
X151.0Y-118.36
X151.0Y-121.16
X151.0Y-126.16
X151.5Y-79.42
X151.5Y-89.58
X151.5Y-96.16
X151.5Y-101.16
X151.5Y-104.08
X151.5Y-114.24
X153.54Y-92.96
X153.54Y-118.36
X156.08Y-92.96
X156.08Y-118.36
X156.5Y-80.0
X156.5Y-96.16
X156.5Y-101.16
X156.5Y-104.0
X156.5Y-114.16
X158.5Y-121.16
X158.5Y-126.16
X158.62Y-92.96
X158.62Y-118.36
X160.0Y-80.0
X161.0Y-135.0
X161.16Y-92.96
X161.16Y-118.36
X162.5Y-121.16
X162.5Y-126.16
X163.7Y-92.96
X163.7Y-118.36
X164.5Y-135.0
X165.5Y-121.16
X165.5Y-126.16
X166.0Y-74.92
X166.0Y-85.08
X166.24Y-92.96
X166.24Y-118.36
X168.5Y-121.16
X168.5Y-126.16
X168.78Y-92.96
X168.78Y-118.36
X169.0Y-128.42
X169.0Y-138.58
X171.32Y-92.96
X171.32Y-118.36
X171.5Y-121.16
X171.5Y-126.16
X173.0Y-127.92
X173.0Y-138.08
X173.86Y-92.96
X173.86Y-118.36
X176.4Y-92.96
X176.4Y-118.36
T6
X124.725Y-148.0
X124.92Y-141.66
X127.265Y-148.0
X127.46Y-141.66
X130.0Y-141.66
X133.225Y-148.0
X135.765Y-148.0
X135.92Y-141.66
X138.46Y-141.66
X141.0Y-141.66
X142.46Y-148.0
X145.0Y-148.0
X146.96Y-141.66
X149.5Y-141.66
X151.96Y-148.0
X152.04Y-141.66
X154.5Y-148.0
X157.92Y-141.66
X160.46Y-141.66
X160.725Y-148.0
X163.0Y-141.66
X163.265Y-148.0
X169.46Y-142.0
X169.5Y-148.0
X172.0Y-142.0
X172.04Y-148.0
X180.5Y-129.19
X180.5Y-131.73
X180.5Y-134.27
X180.5Y-136.81
T4
G00X145.175Y-68.225
M15
G01X145.175Y-67.425
M16
G05
G00X145.175Y-71.955
M15
G01X145.175Y-70.455
M16
G05
G00X153.825Y-68.225
M15
G01X153.825Y-67.425
M16
G05
G00X153.825Y-71.955
M15
G01X153.825Y-70.455
M16
G05
M30
