%TF.GenerationSoftware,KiCad,Pcbnew,10.0.1*%
%TF.CreationDate,2026-05-15T02:11:42+02:00*%
%TF.ProjectId,streamdeckpcb,73747265-616d-4646-9563-6b7063622e6b,1.7*%
%TF.SameCoordinates,Original*%
%TF.FileFunction,Legend,Bot*%
%TF.FilePolarity,Positive*%
%FSLAX46Y46*%
G04 Gerber Fmt 4.6, Leading zero omitted, Abs format (unit mm)*
G04 Created by KiCad (PCBNEW 10.0.1) date 2026-05-15 02:11:42*
%MOMM*%
%LPD*%
G01*
G04 APERTURE LIST*
%ADD10C,0.150000*%
%ADD11C,0.120000*%
G04 APERTURE END LIST*
D10*
X160359580Y-123017142D02*
X160407200Y-122969523D01*
X160407200Y-122969523D02*
X160454819Y-122826666D01*
X160454819Y-122826666D02*
X160454819Y-122731428D01*
X160454819Y-122731428D02*
X160407200Y-122588571D01*
X160407200Y-122588571D02*
X160311961Y-122493333D01*
X160311961Y-122493333D02*
X160216723Y-122445714D01*
X160216723Y-122445714D02*
X160026247Y-122398095D01*
X160026247Y-122398095D02*
X159883390Y-122398095D01*
X159883390Y-122398095D02*
X159692914Y-122445714D01*
X159692914Y-122445714D02*
X159597676Y-122493333D01*
X159597676Y-122493333D02*
X159502438Y-122588571D01*
X159502438Y-122588571D02*
X159454819Y-122731428D01*
X159454819Y-122731428D02*
X159454819Y-122826666D01*
X159454819Y-122826666D02*
X159502438Y-122969523D01*
X159502438Y-122969523D02*
X159550057Y-123017142D01*
X160454819Y-123969523D02*
X160454819Y-123398095D01*
X160454819Y-123683809D02*
X159454819Y-123683809D01*
X159454819Y-123683809D02*
X159597676Y-123588571D01*
X159597676Y-123588571D02*
X159692914Y-123493333D01*
X159692914Y-123493333D02*
X159740533Y-123398095D01*
X160454819Y-124921904D02*
X160454819Y-124350476D01*
X160454819Y-124636190D02*
X159454819Y-124636190D01*
X159454819Y-124636190D02*
X159597676Y-124540952D01*
X159597676Y-124540952D02*
X159692914Y-124445714D01*
X159692914Y-124445714D02*
X159740533Y-124350476D01*
X163392857Y-140609580D02*
X163440476Y-140657200D01*
X163440476Y-140657200D02*
X163583333Y-140704819D01*
X163583333Y-140704819D02*
X163678571Y-140704819D01*
X163678571Y-140704819D02*
X163821428Y-140657200D01*
X163821428Y-140657200D02*
X163916666Y-140561961D01*
X163916666Y-140561961D02*
X163964285Y-140466723D01*
X163964285Y-140466723D02*
X164011904Y-140276247D01*
X164011904Y-140276247D02*
X164011904Y-140133390D01*
X164011904Y-140133390D02*
X163964285Y-139942914D01*
X163964285Y-139942914D02*
X163916666Y-139847676D01*
X163916666Y-139847676D02*
X163821428Y-139752438D01*
X163821428Y-139752438D02*
X163678571Y-139704819D01*
X163678571Y-139704819D02*
X163583333Y-139704819D01*
X163583333Y-139704819D02*
X163440476Y-139752438D01*
X163440476Y-139752438D02*
X163392857Y-139800057D01*
X162440476Y-140704819D02*
X163011904Y-140704819D01*
X162726190Y-140704819D02*
X162726190Y-139704819D01*
X162726190Y-139704819D02*
X162821428Y-139847676D01*
X162821428Y-139847676D02*
X162916666Y-139942914D01*
X162916666Y-139942914D02*
X163011904Y-139990533D01*
X161583333Y-140038152D02*
X161583333Y-140704819D01*
X161821428Y-139657200D02*
X162059523Y-140371485D01*
X162059523Y-140371485D02*
X161440476Y-140371485D01*
X141992857Y-123019580D02*
X142040476Y-123067200D01*
X142040476Y-123067200D02*
X142183333Y-123114819D01*
X142183333Y-123114819D02*
X142278571Y-123114819D01*
X142278571Y-123114819D02*
X142421428Y-123067200D01*
X142421428Y-123067200D02*
X142516666Y-122971961D01*
X142516666Y-122971961D02*
X142564285Y-122876723D01*
X142564285Y-122876723D02*
X142611904Y-122686247D01*
X142611904Y-122686247D02*
X142611904Y-122543390D01*
X142611904Y-122543390D02*
X142564285Y-122352914D01*
X142564285Y-122352914D02*
X142516666Y-122257676D01*
X142516666Y-122257676D02*
X142421428Y-122162438D01*
X142421428Y-122162438D02*
X142278571Y-122114819D01*
X142278571Y-122114819D02*
X142183333Y-122114819D01*
X142183333Y-122114819D02*
X142040476Y-122162438D01*
X142040476Y-122162438D02*
X141992857Y-122210057D01*
X141040476Y-123114819D02*
X141611904Y-123114819D01*
X141326190Y-123114819D02*
X141326190Y-122114819D01*
X141326190Y-122114819D02*
X141421428Y-122257676D01*
X141421428Y-122257676D02*
X141516666Y-122352914D01*
X141516666Y-122352914D02*
X141611904Y-122400533D01*
X140659523Y-122210057D02*
X140611904Y-122162438D01*
X140611904Y-122162438D02*
X140516666Y-122114819D01*
X140516666Y-122114819D02*
X140278571Y-122114819D01*
X140278571Y-122114819D02*
X140183333Y-122162438D01*
X140183333Y-122162438D02*
X140135714Y-122210057D01*
X140135714Y-122210057D02*
X140088095Y-122305295D01*
X140088095Y-122305295D02*
X140088095Y-122400533D01*
X140088095Y-122400533D02*
X140135714Y-122543390D01*
X140135714Y-122543390D02*
X140707142Y-123114819D01*
X140707142Y-123114819D02*
X140088095Y-123114819D01*
X145359580Y-98493333D02*
X145407200Y-98445714D01*
X145407200Y-98445714D02*
X145454819Y-98302857D01*
X145454819Y-98302857D02*
X145454819Y-98207619D01*
X145454819Y-98207619D02*
X145407200Y-98064762D01*
X145407200Y-98064762D02*
X145311961Y-97969524D01*
X145311961Y-97969524D02*
X145216723Y-97921905D01*
X145216723Y-97921905D02*
X145026247Y-97874286D01*
X145026247Y-97874286D02*
X144883390Y-97874286D01*
X144883390Y-97874286D02*
X144692914Y-97921905D01*
X144692914Y-97921905D02*
X144597676Y-97969524D01*
X144597676Y-97969524D02*
X144502438Y-98064762D01*
X144502438Y-98064762D02*
X144454819Y-98207619D01*
X144454819Y-98207619D02*
X144454819Y-98302857D01*
X144454819Y-98302857D02*
X144502438Y-98445714D01*
X144502438Y-98445714D02*
X144550057Y-98493333D01*
X144788152Y-99350476D02*
X145454819Y-99350476D01*
X144407200Y-99112381D02*
X145121485Y-98874286D01*
X145121485Y-98874286D02*
X145121485Y-99493333D01*
X149824819Y-108993333D02*
X149348628Y-108660000D01*
X149824819Y-108421905D02*
X148824819Y-108421905D01*
X148824819Y-108421905D02*
X148824819Y-108802857D01*
X148824819Y-108802857D02*
X148872438Y-108898095D01*
X148872438Y-108898095D02*
X148920057Y-108945714D01*
X148920057Y-108945714D02*
X149015295Y-108993333D01*
X149015295Y-108993333D02*
X149158152Y-108993333D01*
X149158152Y-108993333D02*
X149253390Y-108945714D01*
X149253390Y-108945714D02*
X149301009Y-108898095D01*
X149301009Y-108898095D02*
X149348628Y-108802857D01*
X149348628Y-108802857D02*
X149348628Y-108421905D01*
X149824819Y-109469524D02*
X149824819Y-109660000D01*
X149824819Y-109660000D02*
X149777200Y-109755238D01*
X149777200Y-109755238D02*
X149729580Y-109802857D01*
X149729580Y-109802857D02*
X149586723Y-109898095D01*
X149586723Y-109898095D02*
X149396247Y-109945714D01*
X149396247Y-109945714D02*
X149015295Y-109945714D01*
X149015295Y-109945714D02*
X148920057Y-109898095D01*
X148920057Y-109898095D02*
X148872438Y-109850476D01*
X148872438Y-109850476D02*
X148824819Y-109755238D01*
X148824819Y-109755238D02*
X148824819Y-109564762D01*
X148824819Y-109564762D02*
X148872438Y-109469524D01*
X148872438Y-109469524D02*
X148920057Y-109421905D01*
X148920057Y-109421905D02*
X149015295Y-109374286D01*
X149015295Y-109374286D02*
X149253390Y-109374286D01*
X149253390Y-109374286D02*
X149348628Y-109421905D01*
X149348628Y-109421905D02*
X149396247Y-109469524D01*
X149396247Y-109469524D02*
X149443866Y-109564762D01*
X149443866Y-109564762D02*
X149443866Y-109755238D01*
X149443866Y-109755238D02*
X149396247Y-109850476D01*
X149396247Y-109850476D02*
X149348628Y-109898095D01*
X149348628Y-109898095D02*
X149253390Y-109945714D01*
X154324819Y-108993333D02*
X153848628Y-108660000D01*
X154324819Y-108421905D02*
X153324819Y-108421905D01*
X153324819Y-108421905D02*
X153324819Y-108802857D01*
X153324819Y-108802857D02*
X153372438Y-108898095D01*
X153372438Y-108898095D02*
X153420057Y-108945714D01*
X153420057Y-108945714D02*
X153515295Y-108993333D01*
X153515295Y-108993333D02*
X153658152Y-108993333D01*
X153658152Y-108993333D02*
X153753390Y-108945714D01*
X153753390Y-108945714D02*
X153801009Y-108898095D01*
X153801009Y-108898095D02*
X153848628Y-108802857D01*
X153848628Y-108802857D02*
X153848628Y-108421905D01*
X153753390Y-109564762D02*
X153705771Y-109469524D01*
X153705771Y-109469524D02*
X153658152Y-109421905D01*
X153658152Y-109421905D02*
X153562914Y-109374286D01*
X153562914Y-109374286D02*
X153515295Y-109374286D01*
X153515295Y-109374286D02*
X153420057Y-109421905D01*
X153420057Y-109421905D02*
X153372438Y-109469524D01*
X153372438Y-109469524D02*
X153324819Y-109564762D01*
X153324819Y-109564762D02*
X153324819Y-109755238D01*
X153324819Y-109755238D02*
X153372438Y-109850476D01*
X153372438Y-109850476D02*
X153420057Y-109898095D01*
X153420057Y-109898095D02*
X153515295Y-109945714D01*
X153515295Y-109945714D02*
X153562914Y-109945714D01*
X153562914Y-109945714D02*
X153658152Y-109898095D01*
X153658152Y-109898095D02*
X153705771Y-109850476D01*
X153705771Y-109850476D02*
X153753390Y-109755238D01*
X153753390Y-109755238D02*
X153753390Y-109564762D01*
X153753390Y-109564762D02*
X153801009Y-109469524D01*
X153801009Y-109469524D02*
X153848628Y-109421905D01*
X153848628Y-109421905D02*
X153943866Y-109374286D01*
X153943866Y-109374286D02*
X154134342Y-109374286D01*
X154134342Y-109374286D02*
X154229580Y-109421905D01*
X154229580Y-109421905D02*
X154277200Y-109469524D01*
X154277200Y-109469524D02*
X154324819Y-109564762D01*
X154324819Y-109564762D02*
X154324819Y-109755238D01*
X154324819Y-109755238D02*
X154277200Y-109850476D01*
X154277200Y-109850476D02*
X154229580Y-109898095D01*
X154229580Y-109898095D02*
X154134342Y-109945714D01*
X154134342Y-109945714D02*
X153943866Y-109945714D01*
X153943866Y-109945714D02*
X153848628Y-109898095D01*
X153848628Y-109898095D02*
X153801009Y-109850476D01*
X153801009Y-109850476D02*
X153753390Y-109755238D01*
X159324819Y-108913333D02*
X158848628Y-108580000D01*
X159324819Y-108341905D02*
X158324819Y-108341905D01*
X158324819Y-108341905D02*
X158324819Y-108722857D01*
X158324819Y-108722857D02*
X158372438Y-108818095D01*
X158372438Y-108818095D02*
X158420057Y-108865714D01*
X158420057Y-108865714D02*
X158515295Y-108913333D01*
X158515295Y-108913333D02*
X158658152Y-108913333D01*
X158658152Y-108913333D02*
X158753390Y-108865714D01*
X158753390Y-108865714D02*
X158801009Y-108818095D01*
X158801009Y-108818095D02*
X158848628Y-108722857D01*
X158848628Y-108722857D02*
X158848628Y-108341905D01*
X158324819Y-109246667D02*
X158324819Y-109913333D01*
X158324819Y-109913333D02*
X159324819Y-109484762D01*
X145404819Y-108437142D02*
X144928628Y-108103809D01*
X145404819Y-107865714D02*
X144404819Y-107865714D01*
X144404819Y-107865714D02*
X144404819Y-108246666D01*
X144404819Y-108246666D02*
X144452438Y-108341904D01*
X144452438Y-108341904D02*
X144500057Y-108389523D01*
X144500057Y-108389523D02*
X144595295Y-108437142D01*
X144595295Y-108437142D02*
X144738152Y-108437142D01*
X144738152Y-108437142D02*
X144833390Y-108389523D01*
X144833390Y-108389523D02*
X144881009Y-108341904D01*
X144881009Y-108341904D02*
X144928628Y-108246666D01*
X144928628Y-108246666D02*
X144928628Y-107865714D01*
X145404819Y-109389523D02*
X145404819Y-108818095D01*
X145404819Y-109103809D02*
X144404819Y-109103809D01*
X144404819Y-109103809D02*
X144547676Y-109008571D01*
X144547676Y-109008571D02*
X144642914Y-108913333D01*
X144642914Y-108913333D02*
X144690533Y-108818095D01*
X144404819Y-110008571D02*
X144404819Y-110103809D01*
X144404819Y-110103809D02*
X144452438Y-110199047D01*
X144452438Y-110199047D02*
X144500057Y-110246666D01*
X144500057Y-110246666D02*
X144595295Y-110294285D01*
X144595295Y-110294285D02*
X144785771Y-110341904D01*
X144785771Y-110341904D02*
X145023866Y-110341904D01*
X145023866Y-110341904D02*
X145214342Y-110294285D01*
X145214342Y-110294285D02*
X145309580Y-110246666D01*
X145309580Y-110246666D02*
X145357200Y-110199047D01*
X145357200Y-110199047D02*
X145404819Y-110103809D01*
X145404819Y-110103809D02*
X145404819Y-110008571D01*
X145404819Y-110008571D02*
X145357200Y-109913333D01*
X145357200Y-109913333D02*
X145309580Y-109865714D01*
X145309580Y-109865714D02*
X145214342Y-109818095D01*
X145214342Y-109818095D02*
X145023866Y-109770476D01*
X145023866Y-109770476D02*
X144785771Y-109770476D01*
X144785771Y-109770476D02*
X144595295Y-109818095D01*
X144595295Y-109818095D02*
X144500057Y-109865714D01*
X144500057Y-109865714D02*
X144452438Y-109913333D01*
X144452438Y-109913333D02*
X144404819Y-110008571D01*
X159359580Y-98493333D02*
X159407200Y-98445714D01*
X159407200Y-98445714D02*
X159454819Y-98302857D01*
X159454819Y-98302857D02*
X159454819Y-98207619D01*
X159454819Y-98207619D02*
X159407200Y-98064762D01*
X159407200Y-98064762D02*
X159311961Y-97969524D01*
X159311961Y-97969524D02*
X159216723Y-97921905D01*
X159216723Y-97921905D02*
X159026247Y-97874286D01*
X159026247Y-97874286D02*
X158883390Y-97874286D01*
X158883390Y-97874286D02*
X158692914Y-97921905D01*
X158692914Y-97921905D02*
X158597676Y-97969524D01*
X158597676Y-97969524D02*
X158502438Y-98064762D01*
X158502438Y-98064762D02*
X158454819Y-98207619D01*
X158454819Y-98207619D02*
X158454819Y-98302857D01*
X158454819Y-98302857D02*
X158502438Y-98445714D01*
X158502438Y-98445714D02*
X158550057Y-98493333D01*
X159454819Y-99445714D02*
X159454819Y-98874286D01*
X159454819Y-99160000D02*
X158454819Y-99160000D01*
X158454819Y-99160000D02*
X158597676Y-99064762D01*
X158597676Y-99064762D02*
X158692914Y-98969524D01*
X158692914Y-98969524D02*
X158740533Y-98874286D01*
X149859580Y-98493333D02*
X149907200Y-98445714D01*
X149907200Y-98445714D02*
X149954819Y-98302857D01*
X149954819Y-98302857D02*
X149954819Y-98207619D01*
X149954819Y-98207619D02*
X149907200Y-98064762D01*
X149907200Y-98064762D02*
X149811961Y-97969524D01*
X149811961Y-97969524D02*
X149716723Y-97921905D01*
X149716723Y-97921905D02*
X149526247Y-97874286D01*
X149526247Y-97874286D02*
X149383390Y-97874286D01*
X149383390Y-97874286D02*
X149192914Y-97921905D01*
X149192914Y-97921905D02*
X149097676Y-97969524D01*
X149097676Y-97969524D02*
X149002438Y-98064762D01*
X149002438Y-98064762D02*
X148954819Y-98207619D01*
X148954819Y-98207619D02*
X148954819Y-98302857D01*
X148954819Y-98302857D02*
X149002438Y-98445714D01*
X149002438Y-98445714D02*
X149050057Y-98493333D01*
X148954819Y-98826667D02*
X148954819Y-99445714D01*
X148954819Y-99445714D02*
X149335771Y-99112381D01*
X149335771Y-99112381D02*
X149335771Y-99255238D01*
X149335771Y-99255238D02*
X149383390Y-99350476D01*
X149383390Y-99350476D02*
X149431009Y-99398095D01*
X149431009Y-99398095D02*
X149526247Y-99445714D01*
X149526247Y-99445714D02*
X149764342Y-99445714D01*
X149764342Y-99445714D02*
X149859580Y-99398095D01*
X149859580Y-99398095D02*
X149907200Y-99350476D01*
X149907200Y-99350476D02*
X149954819Y-99255238D01*
X149954819Y-99255238D02*
X149954819Y-98969524D01*
X149954819Y-98969524D02*
X149907200Y-98874286D01*
X149907200Y-98874286D02*
X149859580Y-98826667D01*
X154359580Y-98493333D02*
X154407200Y-98445714D01*
X154407200Y-98445714D02*
X154454819Y-98302857D01*
X154454819Y-98302857D02*
X154454819Y-98207619D01*
X154454819Y-98207619D02*
X154407200Y-98064762D01*
X154407200Y-98064762D02*
X154311961Y-97969524D01*
X154311961Y-97969524D02*
X154216723Y-97921905D01*
X154216723Y-97921905D02*
X154026247Y-97874286D01*
X154026247Y-97874286D02*
X153883390Y-97874286D01*
X153883390Y-97874286D02*
X153692914Y-97921905D01*
X153692914Y-97921905D02*
X153597676Y-97969524D01*
X153597676Y-97969524D02*
X153502438Y-98064762D01*
X153502438Y-98064762D02*
X153454819Y-98207619D01*
X153454819Y-98207619D02*
X153454819Y-98302857D01*
X153454819Y-98302857D02*
X153502438Y-98445714D01*
X153502438Y-98445714D02*
X153550057Y-98493333D01*
X153550057Y-98874286D02*
X153502438Y-98921905D01*
X153502438Y-98921905D02*
X153454819Y-99017143D01*
X153454819Y-99017143D02*
X153454819Y-99255238D01*
X153454819Y-99255238D02*
X153502438Y-99350476D01*
X153502438Y-99350476D02*
X153550057Y-99398095D01*
X153550057Y-99398095D02*
X153645295Y-99445714D01*
X153645295Y-99445714D02*
X153740533Y-99445714D01*
X153740533Y-99445714D02*
X153883390Y-99398095D01*
X153883390Y-99398095D02*
X154454819Y-98826667D01*
X154454819Y-98826667D02*
X154454819Y-99445714D01*
X151354819Y-74738095D02*
X152164342Y-74738095D01*
X152164342Y-74738095D02*
X152259580Y-74785714D01*
X152259580Y-74785714D02*
X152307200Y-74833333D01*
X152307200Y-74833333D02*
X152354819Y-74928571D01*
X152354819Y-74928571D02*
X152354819Y-75119047D01*
X152354819Y-75119047D02*
X152307200Y-75214285D01*
X152307200Y-75214285D02*
X152259580Y-75261904D01*
X152259580Y-75261904D02*
X152164342Y-75309523D01*
X152164342Y-75309523D02*
X151354819Y-75309523D01*
X151450057Y-75738095D02*
X151402438Y-75785714D01*
X151402438Y-75785714D02*
X151354819Y-75880952D01*
X151354819Y-75880952D02*
X151354819Y-76119047D01*
X151354819Y-76119047D02*
X151402438Y-76214285D01*
X151402438Y-76214285D02*
X151450057Y-76261904D01*
X151450057Y-76261904D02*
X151545295Y-76309523D01*
X151545295Y-76309523D02*
X151640533Y-76309523D01*
X151640533Y-76309523D02*
X151783390Y-76261904D01*
X151783390Y-76261904D02*
X152354819Y-75690476D01*
X152354819Y-75690476D02*
X152354819Y-76309523D01*
X171084819Y-132833333D02*
X170608628Y-132500000D01*
X171084819Y-132261905D02*
X170084819Y-132261905D01*
X170084819Y-132261905D02*
X170084819Y-132642857D01*
X170084819Y-132642857D02*
X170132438Y-132738095D01*
X170132438Y-132738095D02*
X170180057Y-132785714D01*
X170180057Y-132785714D02*
X170275295Y-132833333D01*
X170275295Y-132833333D02*
X170418152Y-132833333D01*
X170418152Y-132833333D02*
X170513390Y-132785714D01*
X170513390Y-132785714D02*
X170561009Y-132738095D01*
X170561009Y-132738095D02*
X170608628Y-132642857D01*
X170608628Y-132642857D02*
X170608628Y-132261905D01*
X170418152Y-133690476D02*
X171084819Y-133690476D01*
X170037200Y-133452381D02*
X170751485Y-133214286D01*
X170751485Y-133214286D02*
X170751485Y-133833333D01*
X167084819Y-133333333D02*
X166608628Y-133000000D01*
X167084819Y-132761905D02*
X166084819Y-132761905D01*
X166084819Y-132761905D02*
X166084819Y-133142857D01*
X166084819Y-133142857D02*
X166132438Y-133238095D01*
X166132438Y-133238095D02*
X166180057Y-133285714D01*
X166180057Y-133285714D02*
X166275295Y-133333333D01*
X166275295Y-133333333D02*
X166418152Y-133333333D01*
X166418152Y-133333333D02*
X166513390Y-133285714D01*
X166513390Y-133285714D02*
X166561009Y-133238095D01*
X166561009Y-133238095D02*
X166608628Y-133142857D01*
X166608628Y-133142857D02*
X166608628Y-132761905D01*
X166180057Y-133714286D02*
X166132438Y-133761905D01*
X166132438Y-133761905D02*
X166084819Y-133857143D01*
X166084819Y-133857143D02*
X166084819Y-134095238D01*
X166084819Y-134095238D02*
X166132438Y-134190476D01*
X166132438Y-134190476D02*
X166180057Y-134238095D01*
X166180057Y-134238095D02*
X166275295Y-134285714D01*
X166275295Y-134285714D02*
X166370533Y-134285714D01*
X166370533Y-134285714D02*
X166513390Y-134238095D01*
X166513390Y-134238095D02*
X167084819Y-133666667D01*
X167084819Y-133666667D02*
X167084819Y-134285714D01*
X166359580Y-123493333D02*
X166407200Y-123445714D01*
X166407200Y-123445714D02*
X166454819Y-123302857D01*
X166454819Y-123302857D02*
X166454819Y-123207619D01*
X166454819Y-123207619D02*
X166407200Y-123064762D01*
X166407200Y-123064762D02*
X166311961Y-122969524D01*
X166311961Y-122969524D02*
X166216723Y-122921905D01*
X166216723Y-122921905D02*
X166026247Y-122874286D01*
X166026247Y-122874286D02*
X165883390Y-122874286D01*
X165883390Y-122874286D02*
X165692914Y-122921905D01*
X165692914Y-122921905D02*
X165597676Y-122969524D01*
X165597676Y-122969524D02*
X165502438Y-123064762D01*
X165502438Y-123064762D02*
X165454819Y-123207619D01*
X165454819Y-123207619D02*
X165454819Y-123302857D01*
X165454819Y-123302857D02*
X165502438Y-123445714D01*
X165502438Y-123445714D02*
X165550057Y-123493333D01*
X165883390Y-124064762D02*
X165835771Y-123969524D01*
X165835771Y-123969524D02*
X165788152Y-123921905D01*
X165788152Y-123921905D02*
X165692914Y-123874286D01*
X165692914Y-123874286D02*
X165645295Y-123874286D01*
X165645295Y-123874286D02*
X165550057Y-123921905D01*
X165550057Y-123921905D02*
X165502438Y-123969524D01*
X165502438Y-123969524D02*
X165454819Y-124064762D01*
X165454819Y-124064762D02*
X165454819Y-124255238D01*
X165454819Y-124255238D02*
X165502438Y-124350476D01*
X165502438Y-124350476D02*
X165550057Y-124398095D01*
X165550057Y-124398095D02*
X165645295Y-124445714D01*
X165645295Y-124445714D02*
X165692914Y-124445714D01*
X165692914Y-124445714D02*
X165788152Y-124398095D01*
X165788152Y-124398095D02*
X165835771Y-124350476D01*
X165835771Y-124350476D02*
X165883390Y-124255238D01*
X165883390Y-124255238D02*
X165883390Y-124064762D01*
X165883390Y-124064762D02*
X165931009Y-123969524D01*
X165931009Y-123969524D02*
X165978628Y-123921905D01*
X165978628Y-123921905D02*
X166073866Y-123874286D01*
X166073866Y-123874286D02*
X166264342Y-123874286D01*
X166264342Y-123874286D02*
X166359580Y-123921905D01*
X166359580Y-123921905D02*
X166407200Y-123969524D01*
X166407200Y-123969524D02*
X166454819Y-124064762D01*
X166454819Y-124064762D02*
X166454819Y-124255238D01*
X166454819Y-124255238D02*
X166407200Y-124350476D01*
X166407200Y-124350476D02*
X166359580Y-124398095D01*
X166359580Y-124398095D02*
X166264342Y-124445714D01*
X166264342Y-124445714D02*
X166073866Y-124445714D01*
X166073866Y-124445714D02*
X165978628Y-124398095D01*
X165978628Y-124398095D02*
X165931009Y-124350476D01*
X165931009Y-124350476D02*
X165883390Y-124255238D01*
X169359580Y-123493333D02*
X169407200Y-123445714D01*
X169407200Y-123445714D02*
X169454819Y-123302857D01*
X169454819Y-123302857D02*
X169454819Y-123207619D01*
X169454819Y-123207619D02*
X169407200Y-123064762D01*
X169407200Y-123064762D02*
X169311961Y-122969524D01*
X169311961Y-122969524D02*
X169216723Y-122921905D01*
X169216723Y-122921905D02*
X169026247Y-122874286D01*
X169026247Y-122874286D02*
X168883390Y-122874286D01*
X168883390Y-122874286D02*
X168692914Y-122921905D01*
X168692914Y-122921905D02*
X168597676Y-122969524D01*
X168597676Y-122969524D02*
X168502438Y-123064762D01*
X168502438Y-123064762D02*
X168454819Y-123207619D01*
X168454819Y-123207619D02*
X168454819Y-123302857D01*
X168454819Y-123302857D02*
X168502438Y-123445714D01*
X168502438Y-123445714D02*
X168550057Y-123493333D01*
X168454819Y-123826667D02*
X168454819Y-124493333D01*
X168454819Y-124493333D02*
X169454819Y-124064762D01*
X156359580Y-123493333D02*
X156407200Y-123445714D01*
X156407200Y-123445714D02*
X156454819Y-123302857D01*
X156454819Y-123302857D02*
X156454819Y-123207619D01*
X156454819Y-123207619D02*
X156407200Y-123064762D01*
X156407200Y-123064762D02*
X156311961Y-122969524D01*
X156311961Y-122969524D02*
X156216723Y-122921905D01*
X156216723Y-122921905D02*
X156026247Y-122874286D01*
X156026247Y-122874286D02*
X155883390Y-122874286D01*
X155883390Y-122874286D02*
X155692914Y-122921905D01*
X155692914Y-122921905D02*
X155597676Y-122969524D01*
X155597676Y-122969524D02*
X155502438Y-123064762D01*
X155502438Y-123064762D02*
X155454819Y-123207619D01*
X155454819Y-123207619D02*
X155454819Y-123302857D01*
X155454819Y-123302857D02*
X155502438Y-123445714D01*
X155502438Y-123445714D02*
X155550057Y-123493333D01*
X155454819Y-124350476D02*
X155454819Y-124160000D01*
X155454819Y-124160000D02*
X155502438Y-124064762D01*
X155502438Y-124064762D02*
X155550057Y-124017143D01*
X155550057Y-124017143D02*
X155692914Y-123921905D01*
X155692914Y-123921905D02*
X155883390Y-123874286D01*
X155883390Y-123874286D02*
X156264342Y-123874286D01*
X156264342Y-123874286D02*
X156359580Y-123921905D01*
X156359580Y-123921905D02*
X156407200Y-123969524D01*
X156407200Y-123969524D02*
X156454819Y-124064762D01*
X156454819Y-124064762D02*
X156454819Y-124255238D01*
X156454819Y-124255238D02*
X156407200Y-124350476D01*
X156407200Y-124350476D02*
X156359580Y-124398095D01*
X156359580Y-124398095D02*
X156264342Y-124445714D01*
X156264342Y-124445714D02*
X156026247Y-124445714D01*
X156026247Y-124445714D02*
X155931009Y-124398095D01*
X155931009Y-124398095D02*
X155883390Y-124350476D01*
X155883390Y-124350476D02*
X155835771Y-124255238D01*
X155835771Y-124255238D02*
X155835771Y-124064762D01*
X155835771Y-124064762D02*
X155883390Y-123969524D01*
X155883390Y-123969524D02*
X155931009Y-123921905D01*
X155931009Y-123921905D02*
X156026247Y-123874286D01*
X148859580Y-123493333D02*
X148907200Y-123445714D01*
X148907200Y-123445714D02*
X148954819Y-123302857D01*
X148954819Y-123302857D02*
X148954819Y-123207619D01*
X148954819Y-123207619D02*
X148907200Y-123064762D01*
X148907200Y-123064762D02*
X148811961Y-122969524D01*
X148811961Y-122969524D02*
X148716723Y-122921905D01*
X148716723Y-122921905D02*
X148526247Y-122874286D01*
X148526247Y-122874286D02*
X148383390Y-122874286D01*
X148383390Y-122874286D02*
X148192914Y-122921905D01*
X148192914Y-122921905D02*
X148097676Y-122969524D01*
X148097676Y-122969524D02*
X148002438Y-123064762D01*
X148002438Y-123064762D02*
X147954819Y-123207619D01*
X147954819Y-123207619D02*
X147954819Y-123302857D01*
X147954819Y-123302857D02*
X148002438Y-123445714D01*
X148002438Y-123445714D02*
X148050057Y-123493333D01*
X147954819Y-124398095D02*
X147954819Y-123921905D01*
X147954819Y-123921905D02*
X148431009Y-123874286D01*
X148431009Y-123874286D02*
X148383390Y-123921905D01*
X148383390Y-123921905D02*
X148335771Y-124017143D01*
X148335771Y-124017143D02*
X148335771Y-124255238D01*
X148335771Y-124255238D02*
X148383390Y-124350476D01*
X148383390Y-124350476D02*
X148431009Y-124398095D01*
X148431009Y-124398095D02*
X148526247Y-124445714D01*
X148526247Y-124445714D02*
X148764342Y-124445714D01*
X148764342Y-124445714D02*
X148859580Y-124398095D01*
X148859580Y-124398095D02*
X148907200Y-124350476D01*
X148907200Y-124350476D02*
X148954819Y-124255238D01*
X148954819Y-124255238D02*
X148954819Y-124017143D01*
X148954819Y-124017143D02*
X148907200Y-123921905D01*
X148907200Y-123921905D02*
X148859580Y-123874286D01*
X163359580Y-123017142D02*
X163407200Y-122969523D01*
X163407200Y-122969523D02*
X163454819Y-122826666D01*
X163454819Y-122826666D02*
X163454819Y-122731428D01*
X163454819Y-122731428D02*
X163407200Y-122588571D01*
X163407200Y-122588571D02*
X163311961Y-122493333D01*
X163311961Y-122493333D02*
X163216723Y-122445714D01*
X163216723Y-122445714D02*
X163026247Y-122398095D01*
X163026247Y-122398095D02*
X162883390Y-122398095D01*
X162883390Y-122398095D02*
X162692914Y-122445714D01*
X162692914Y-122445714D02*
X162597676Y-122493333D01*
X162597676Y-122493333D02*
X162502438Y-122588571D01*
X162502438Y-122588571D02*
X162454819Y-122731428D01*
X162454819Y-122731428D02*
X162454819Y-122826666D01*
X162454819Y-122826666D02*
X162502438Y-122969523D01*
X162502438Y-122969523D02*
X162550057Y-123017142D01*
X163454819Y-123969523D02*
X163454819Y-123398095D01*
X163454819Y-123683809D02*
X162454819Y-123683809D01*
X162454819Y-123683809D02*
X162597676Y-123588571D01*
X162597676Y-123588571D02*
X162692914Y-123493333D01*
X162692914Y-123493333D02*
X162740533Y-123398095D01*
X162454819Y-124588571D02*
X162454819Y-124683809D01*
X162454819Y-124683809D02*
X162502438Y-124779047D01*
X162502438Y-124779047D02*
X162550057Y-124826666D01*
X162550057Y-124826666D02*
X162645295Y-124874285D01*
X162645295Y-124874285D02*
X162835771Y-124921904D01*
X162835771Y-124921904D02*
X163073866Y-124921904D01*
X163073866Y-124921904D02*
X163264342Y-124874285D01*
X163264342Y-124874285D02*
X163359580Y-124826666D01*
X163359580Y-124826666D02*
X163407200Y-124779047D01*
X163407200Y-124779047D02*
X163454819Y-124683809D01*
X163454819Y-124683809D02*
X163454819Y-124588571D01*
X163454819Y-124588571D02*
X163407200Y-124493333D01*
X163407200Y-124493333D02*
X163359580Y-124445714D01*
X163359580Y-124445714D02*
X163264342Y-124398095D01*
X163264342Y-124398095D02*
X163073866Y-124350476D01*
X163073866Y-124350476D02*
X162835771Y-124350476D01*
X162835771Y-124350476D02*
X162645295Y-124398095D01*
X162645295Y-124398095D02*
X162550057Y-124445714D01*
X162550057Y-124445714D02*
X162502438Y-124493333D01*
X162502438Y-124493333D02*
X162454819Y-124588571D01*
%TO.C,C14*%
D11*
X166870000Y-135000000D02*
G75*
G02*
X158630000Y-135000000I-4120000J0D01*
G01*
X158630000Y-135000000D02*
G75*
G02*
X166870000Y-135000000I4120000J0D01*
G01*
X166830000Y-135533000D02*
X166830000Y-134467000D01*
X166790000Y-135768000D02*
X166790000Y-134232000D01*
X166750000Y-135947000D02*
X166750000Y-134053000D01*
X166710000Y-136097000D02*
X166710000Y-133903000D01*
X166670000Y-136228000D02*
X166670000Y-133772000D01*
X166630000Y-136346000D02*
X166630000Y-133654000D01*
X166590000Y-136453000D02*
X166590000Y-133547000D01*
X166550000Y-136552000D02*
X166550000Y-133448000D01*
X166510000Y-136644000D02*
X166510000Y-133356000D01*
X166470000Y-136731000D02*
X166470000Y-133269000D01*
X166430000Y-136813000D02*
X166430000Y-133187000D01*
X166390000Y-136890000D02*
X166390000Y-133110000D01*
X166350000Y-136964000D02*
X166350000Y-133036000D01*
X166310000Y-137034000D02*
X166310000Y-132966000D01*
X166270000Y-137101000D02*
X166270000Y-132899000D01*
X166230000Y-137165000D02*
X166230000Y-132835000D01*
X166190000Y-137227000D02*
X166190000Y-132773000D01*
X166150000Y-137287000D02*
X166150000Y-132713000D01*
X166110000Y-137344000D02*
X166110000Y-132656000D01*
X166070000Y-137400000D02*
X166070000Y-132600000D01*
X166030000Y-137453000D02*
X166030000Y-132547000D01*
X165990000Y-137505000D02*
X165990000Y-132495000D01*
X165950000Y-137555000D02*
X165950000Y-132445000D01*
X165910000Y-137604000D02*
X165910000Y-132396000D01*
X165870000Y-137651000D02*
X165870000Y-132349000D01*
X165830000Y-137696000D02*
X165830000Y-132304000D01*
X165790000Y-137741000D02*
X165790000Y-132259000D01*
X165750000Y-137784000D02*
X165750000Y-132216000D01*
X165710000Y-137826000D02*
X165710000Y-132174000D01*
X165670000Y-137867000D02*
X165670000Y-132133000D01*
X165630000Y-137906000D02*
X165630000Y-132094000D01*
X165590000Y-137945000D02*
X165590000Y-132055000D01*
X165550000Y-137982000D02*
X165550000Y-132018000D01*
X165510000Y-133960000D02*
X165510000Y-131981000D01*
X165510000Y-138019000D02*
X165510000Y-136040000D01*
X165470000Y-133960000D02*
X165470000Y-131945000D01*
X165470000Y-138055000D02*
X165470000Y-136040000D01*
X165430000Y-133960000D02*
X165430000Y-131911000D01*
X165430000Y-138089000D02*
X165430000Y-136040000D01*
X165390000Y-133960000D02*
X165390000Y-131877000D01*
X165390000Y-138123000D02*
X165390000Y-136040000D01*
X165350000Y-133960000D02*
X165350000Y-131844000D01*
X165350000Y-138156000D02*
X165350000Y-136040000D01*
X165310000Y-133960000D02*
X165310000Y-131812000D01*
X165310000Y-138188000D02*
X165310000Y-136040000D01*
X165270000Y-133960000D02*
X165270000Y-131781000D01*
X165270000Y-138219000D02*
X165270000Y-136040000D01*
X165230000Y-133960000D02*
X165230000Y-131750000D01*
X165230000Y-138250000D02*
X165230000Y-136040000D01*
X165190000Y-133960000D02*
X165190000Y-131720000D01*
X165190000Y-138280000D02*
X165190000Y-136040000D01*
X165150000Y-133960000D02*
X165150000Y-131691000D01*
X165150000Y-138309000D02*
X165150000Y-136040000D01*
X165110000Y-133960000D02*
X165110000Y-131663000D01*
X165110000Y-138337000D02*
X165110000Y-136040000D01*
X165070000Y-133960000D02*
X165070000Y-131635000D01*
X165070000Y-138365000D02*
X165070000Y-136040000D01*
X165030000Y-133960000D02*
X165030000Y-131608000D01*
X165030000Y-138392000D02*
X165030000Y-136040000D01*
X164990000Y-133960000D02*
X164990000Y-131582000D01*
X164990000Y-138418000D02*
X164990000Y-136040000D01*
X164950000Y-133960000D02*
X164950000Y-131557000D01*
X164950000Y-138443000D02*
X164950000Y-136040000D01*
X164910000Y-133960000D02*
X164910000Y-131532000D01*
X164910000Y-138468000D02*
X164910000Y-136040000D01*
X164870000Y-133960000D02*
X164870000Y-131507000D01*
X164870000Y-138493000D02*
X164870000Y-136040000D01*
X164830000Y-133960000D02*
X164830000Y-131484000D01*
X164830000Y-138516000D02*
X164830000Y-136040000D01*
X164790000Y-133960000D02*
X164790000Y-131461000D01*
X164790000Y-138539000D02*
X164790000Y-136040000D01*
X164750000Y-133960000D02*
X164750000Y-131438000D01*
X164750000Y-138562000D02*
X164750000Y-136040000D01*
X164710000Y-133960000D02*
X164710000Y-131416000D01*
X164710000Y-138584000D02*
X164710000Y-136040000D01*
X164670000Y-133960000D02*
X164670000Y-131395000D01*
X164670000Y-138605000D02*
X164670000Y-136040000D01*
X164630000Y-133960000D02*
X164630000Y-131374000D01*
X164630000Y-138626000D02*
X164630000Y-136040000D01*
X164590000Y-133960000D02*
X164590000Y-131354000D01*
X164590000Y-138646000D02*
X164590000Y-136040000D01*
X164550000Y-133960000D02*
X164550000Y-131334000D01*
X164550000Y-138666000D02*
X164550000Y-136040000D01*
X164510000Y-133960000D02*
X164510000Y-131315000D01*
X164510000Y-138685000D02*
X164510000Y-136040000D01*
X164470000Y-133960000D02*
X164470000Y-131296000D01*
X164470000Y-138704000D02*
X164470000Y-136040000D01*
X164430000Y-133960000D02*
X164430000Y-131278000D01*
X164430000Y-138722000D02*
X164430000Y-136040000D01*
X164390000Y-133960000D02*
X164390000Y-131260000D01*
X164390000Y-138740000D02*
X164390000Y-136040000D01*
X164350000Y-133960000D02*
X164350000Y-131243000D01*
X164350000Y-138757000D02*
X164350000Y-136040000D01*
X164310000Y-133960000D02*
X164310000Y-131227000D01*
X164310000Y-138773000D02*
X164310000Y-136040000D01*
X164270000Y-133960000D02*
X164270000Y-131211000D01*
X164270000Y-138789000D02*
X164270000Y-136040000D01*
X164230000Y-133960000D02*
X164230000Y-131195000D01*
X164230000Y-138805000D02*
X164230000Y-136040000D01*
X164190000Y-133960000D02*
X164190000Y-131180000D01*
X164190000Y-138820000D02*
X164190000Y-136040000D01*
X164150000Y-133960000D02*
X164150000Y-131165000D01*
X164150000Y-138835000D02*
X164150000Y-136040000D01*
X164110000Y-133960000D02*
X164110000Y-131151000D01*
X164110000Y-138849000D02*
X164110000Y-136040000D01*
X164070000Y-133960000D02*
X164070000Y-131137000D01*
X164070000Y-138863000D02*
X164070000Y-136040000D01*
X164030000Y-133960000D02*
X164030000Y-131124000D01*
X164030000Y-138876000D02*
X164030000Y-136040000D01*
X163990000Y-133960000D02*
X163990000Y-131111000D01*
X163990000Y-138889000D02*
X163990000Y-136040000D01*
X163950000Y-133960000D02*
X163950000Y-131099000D01*
X163950000Y-138901000D02*
X163950000Y-136040000D01*
X163910000Y-133960000D02*
X163910000Y-131087000D01*
X163910000Y-138913000D02*
X163910000Y-136040000D01*
X163870000Y-133960000D02*
X163870000Y-131075000D01*
X163870000Y-138925000D02*
X163870000Y-136040000D01*
X163830000Y-133960000D02*
X163830000Y-131064000D01*
X163830000Y-138936000D02*
X163830000Y-136040000D01*
X163790000Y-133960000D02*
X163790000Y-131053000D01*
X163790000Y-138947000D02*
X163790000Y-136040000D01*
X163750000Y-133960000D02*
X163750000Y-131043000D01*
X163750000Y-138957000D02*
X163750000Y-136040000D01*
X163710000Y-133960000D02*
X163710000Y-131033000D01*
X163710000Y-138967000D02*
X163710000Y-136040000D01*
X163670000Y-133960000D02*
X163670000Y-131024000D01*
X163670000Y-138976000D02*
X163670000Y-136040000D01*
X163630000Y-133960000D02*
X163630000Y-131015000D01*
X163630000Y-138985000D02*
X163630000Y-136040000D01*
X163590000Y-133960000D02*
X163590000Y-131007000D01*
X163590000Y-138993000D02*
X163590000Y-136040000D01*
X163550000Y-133960000D02*
X163550000Y-130998000D01*
X163550000Y-139002000D02*
X163550000Y-136040000D01*
X163510000Y-133960000D02*
X163510000Y-130991000D01*
X163510000Y-139009000D02*
X163510000Y-136040000D01*
X163470000Y-133960000D02*
X163470000Y-130983000D01*
X163470000Y-139017000D02*
X163470000Y-136040000D01*
X163430000Y-139023000D02*
X163430000Y-130977000D01*
X163390000Y-139030000D02*
X163390000Y-130970000D01*
X163350000Y-139036000D02*
X163350000Y-130964000D01*
X163310000Y-139042000D02*
X163310000Y-130958000D01*
X163270000Y-139047000D02*
X163270000Y-130953000D01*
X163230000Y-139052000D02*
X163230000Y-130948000D01*
X163190000Y-139056000D02*
X163190000Y-130944000D01*
X163150000Y-139061000D02*
X163150000Y-130939000D01*
X163110000Y-139064000D02*
X163110000Y-130936000D01*
X163070000Y-139068000D02*
X163070000Y-130932000D01*
X163030000Y-139070000D02*
X163030000Y-130930000D01*
X162990000Y-139073000D02*
X162990000Y-130927000D01*
X162950000Y-139075000D02*
X162950000Y-130925000D01*
X162910000Y-139077000D02*
X162910000Y-130923000D01*
X162870000Y-139078000D02*
X162870000Y-130922000D01*
X162830000Y-139079000D02*
X162830000Y-130921000D01*
X162790000Y-139080000D02*
X162790000Y-130920000D01*
X162750000Y-139080000D02*
X162750000Y-130920000D01*
X158740302Y-137715000D02*
X158740302Y-136915000D01*
X158340302Y-137315000D02*
X159140302Y-137315000D01*
%TO.C,C12*%
X139870000Y-126280000D02*
X139870000Y-121040000D01*
X139533000Y-126280000D02*
X139870000Y-126280000D01*
X137130000Y-126280000D02*
X137467000Y-126280000D01*
X139870000Y-121040000D02*
X139533000Y-121040000D01*
X137467000Y-121040000D02*
X137130000Y-121040000D01*
X137130000Y-121040000D02*
X137130000Y-126280000D01*
%TO.C,C4*%
X141130000Y-96040000D02*
X141130000Y-101280000D01*
X141467000Y-96040000D02*
X141130000Y-96040000D01*
X143870000Y-96040000D02*
X143533000Y-96040000D01*
X141130000Y-101280000D02*
X141467000Y-101280000D01*
X143533000Y-101280000D02*
X143870000Y-101280000D01*
X143870000Y-101280000D02*
X143870000Y-96040000D01*
%TO.C,R9*%
X145630000Y-105890000D02*
X148370000Y-105890000D01*
X148370000Y-112430000D01*
X145630000Y-112430000D01*
X145630000Y-105890000D01*
X147000000Y-105120000D02*
X147000000Y-105890000D01*
X147000000Y-113200000D02*
X147000000Y-112430000D01*
%TO.C,R8*%
X150130000Y-105890000D02*
X152870000Y-105890000D01*
X152870000Y-112430000D01*
X150130000Y-112430000D01*
X150130000Y-105890000D01*
X151500000Y-105120000D02*
X151500000Y-105890000D01*
X151500000Y-113200000D02*
X151500000Y-112430000D01*
%TO.C,R7*%
X155130000Y-105810000D02*
X157870000Y-105810000D01*
X157870000Y-112350000D01*
X155130000Y-112350000D01*
X155130000Y-105810000D01*
X156500000Y-105040000D02*
X156500000Y-105810000D01*
X156500000Y-113120000D02*
X156500000Y-112350000D01*
%TO.C,R10*%
X141210000Y-105810000D02*
X143950000Y-105810000D01*
X143950000Y-112350000D01*
X141210000Y-112350000D01*
X141210000Y-105810000D01*
X142580000Y-105040000D02*
X142580000Y-105810000D01*
X142580000Y-113120000D02*
X142580000Y-112350000D01*
%TO.C,C1*%
X155130000Y-96040000D02*
X155130000Y-101280000D01*
X155467000Y-96040000D02*
X155130000Y-96040000D01*
X157870000Y-96040000D02*
X157533000Y-96040000D01*
X155130000Y-101280000D02*
X155467000Y-101280000D01*
X157533000Y-101280000D02*
X157870000Y-101280000D01*
X157870000Y-101280000D02*
X157870000Y-96040000D01*
%TO.C,C3*%
X145630000Y-96040000D02*
X145630000Y-101280000D01*
X145967000Y-96040000D02*
X145630000Y-96040000D01*
X148370000Y-96040000D02*
X148033000Y-96040000D01*
X145630000Y-101280000D02*
X145967000Y-101280000D01*
X148033000Y-101280000D02*
X148370000Y-101280000D01*
X148370000Y-101280000D02*
X148370000Y-96040000D01*
%TO.C,C2*%
X150130000Y-96040000D02*
X150130000Y-101280000D01*
X150467000Y-96040000D02*
X150130000Y-96040000D01*
X152870000Y-96040000D02*
X152533000Y-96040000D01*
X150130000Y-101280000D02*
X150467000Y-101280000D01*
X152533000Y-101280000D02*
X152870000Y-101280000D01*
X152870000Y-101280000D02*
X152870000Y-96040000D01*
%TO.C,U2*%
X151060000Y-76410000D02*
X151060000Y-74590000D01*
X151010000Y-76410000D02*
X151060000Y-76410000D01*
X147940000Y-76410000D02*
X147990000Y-76410000D01*
X151060000Y-74590000D02*
X151010000Y-74590000D01*
X147990000Y-74590000D02*
X147940000Y-74590000D01*
X147940000Y-74590000D02*
X147940000Y-76410000D01*
X151340000Y-77190000D02*
X151010000Y-76950000D01*
X151340000Y-76710000D01*
X151340000Y-77190000D01*
G36*
X151340000Y-77190000D02*
G01*
X151010000Y-76950000D01*
X151340000Y-76710000D01*
X151340000Y-77190000D01*
G37*
%TO.C,R4*%
X173000000Y-128960000D02*
X173000000Y-129730000D01*
X173000000Y-137040000D02*
X173000000Y-136270000D01*
X171630000Y-129730000D02*
X174370000Y-129730000D01*
X174370000Y-136270000D01*
X171630000Y-136270000D01*
X171630000Y-129730000D01*
%TO.C,R2*%
X169000000Y-129460000D02*
X169000000Y-130230000D01*
X169000000Y-137540000D02*
X169000000Y-136770000D01*
X167630000Y-130230000D02*
X170370000Y-130230000D01*
X170370000Y-136770000D01*
X167630000Y-136770000D01*
X167630000Y-130230000D01*
%TO.C,C6*%
X157130000Y-121040000D02*
X157130000Y-126280000D01*
X157467000Y-121040000D02*
X157130000Y-121040000D01*
X159870000Y-121040000D02*
X159533000Y-121040000D01*
X157130000Y-126280000D02*
X157467000Y-126280000D01*
X159533000Y-126280000D02*
X159870000Y-126280000D01*
X159870000Y-126280000D02*
X159870000Y-121040000D01*
%TO.C,C5*%
X149630000Y-121040000D02*
X149630000Y-126280000D01*
X149967000Y-121040000D02*
X149630000Y-121040000D01*
X152370000Y-121040000D02*
X152033000Y-121040000D01*
X149630000Y-126280000D02*
X149967000Y-126280000D01*
X152033000Y-126280000D02*
X152370000Y-126280000D01*
X152370000Y-126280000D02*
X152370000Y-121040000D01*
%TD*%
M02*
